{
	"asset":{
		"generator":"Khronos glTF Blender I/O v4.0.43",
		"version":"2.0"
	},
	"scene":0,
	"scenes":[
		{
			"extras":{
				"fast64":{
					"settings":{
						"internal_game_update_ver":1
					},
					"sm64":{
						"address_converter":{
							"version":1
						},
						"combined_export":{},
						"version":4
					},
					"renderSettings":{}
				},
				"f3d_lib_dir":"C:\\Users\\lgc\\AppData\\Roaming\\Blender Foundation\\Blender\\4.0\\scripts\\addons\\fast64-main\\fast64_internal\\f3d\\f3d_material_library.blend\\NodeTree",
				"opLargeTextureProperty":{
					"mat":{}
				},
				"f3d_type":10,
				"gameEditorMode":2,
				"ootPreviewSettingsProperty":{
					"ootCSPreviewCSObj":{}
				}
			},
			"name":"Scene",
			"nodes":[
				0
			]
		}
	],
	"nodes":[
		{
			"extras":{
				"fast64":{
					"sm64":{
						"geo_asm":{},
						"game_object":{},
						"version":3
					}
				}
			},
			"mesh":0,
			"name":"Cube",
			"scale":[
				5.62559700012207,
				1,
				5.62559700012207
			],
			"translation":[
				0,
				1,
				0
			]
		}
	],
	"materials":[
		{
			"extras":{
				"rdp_settings":{},
				"combiner1":{},
				"UVanim":{
					"x":{},
					"y":{}
				},
				"tex0":{
					"tile_scroll":{}
				},
				"ootCollisionProperty":{},
				"f3d_mat":{
					"name":"",
					"combiner1":{
						"name":"",
						"A":1,
						"B":8,
						"C":4,
						"D":7,
						"A_alpha":7,
						"B_alpha":7,
						"C_alpha":7,
						"D_alpha":6
					},
					"combiner2":{
						"name":"",
						"A":0,
						"B":8,
						"C":3,
						"D":7,
						"A_alpha":7,
						"B_alpha":7,
						"C_alpha":7,
						"D_alpha":0
					},
					"tex0":{
						"tex_set":1,
						"name":"",
						"tex":{
							"name":"T_Planks19.png",
							"type":"Image"
						},
						"menu":1,
						"S":{
							"mask":6,
							"shift":0,
							"low":0.0,
							"high":63.0
						},
						"T":{
							"mask":6,
							"shift":0,
							"low":0.0,
							"high":63.0
						},
						"tex_format":5
					},
					"tex1":{
						"tex_set":1,
						"name":"",
						"tex":{}
					},
					"set_prim":1,
					"set_lights":0,
					"set_env":0,
					"set_blend":0,
					"set_key":1,
					"set_k0_5":1,
					"set_combiner":1,
					"use_default_lighting":1,
					"blend_color":[
						0.0,
						0.0,
						0.0,
						1.0
					],
					"prim_color":[
						1.0,
						1.0,
						1.0,
						1.0
					],
					"env_color":[
						0.0,
						0.0,
						0.0,
						1.0
					],
					"key_center":[
						0.5,
						0.5,
						0.5,
						1.0
					],
					"key_scale":[
						0.0,
						0.0,
						0.0
					],
					"key_width":[
						0.0,
						0.0,
						0.0
					],
					"k0":0.686274528503418,
					"k1":-0.16862745583057404,
					"k2":-0.3490196168422699,
					"k3":0.8705882430076599,
					"k4":0.4470588266849518,
					"k5":0.16470588743686676,
					"prim_lod_frac":0.0,
					"prim_lod_min":0.0,
					"default_light_color":[
						1.0,
						1.0,
						1.0,
						1.0
					],
					"ambient_light_color":[
						0.2140410989522934,
						0.2140410989522934,
						0.2140410989522934,
						1.0
					],
					"f3d_light1":null,
					"f3d_light2":null,
					"f3d_light3":null,
					"f3d_light4":null,
					"f3d_light5":null,
					"f3d_light6":null,
					"f3d_light7":null,
					"set_ao":0,
					"set_fresnel":0,
					"set_attroffs_st":0,
					"set_attroffs_z":0,
					"fog_color":[
						0.0,
						0.0,
						0.0,
						1.0
					],
					"fog_position":[
						985,
						1000
					],
					"set_fog":0,
					"use_global_fog":1,
					"rdp_settings":{
						"name":"",
						"g_zbuffer":1,
						"g_shade":1,
						"g_ambocclusion":0,
						"g_attroffset_z_enable":0,
						"g_attroffset_st_enable":0,
						"g_cull_front":0,
						"g_cull_back":1,
						"g_packed_normals":0,
						"g_lighttoalpha":0,
						"g_lighting_specular":0,
						"g_fresnel_color":0,
						"g_fresnel_alpha":0,
						"g_fog":1,
						"g_lighting":1,
						"g_tex_gen":0,
						"g_tex_gen_linear":0,
						"g_lod":0,
						"g_shade_smooth":1,
						"g_clipping":0,
						"g_mdsft_alpha_dither":2,
						"g_mdsft_rgb_dither":0,
						"g_mdsft_combkey":0,
						"g_mdsft_textconv":2,
						"g_mdsft_text_filt":2,
						"g_mdsft_textlut":1,
						"g_mdsft_textlod":0,
						"g_mdsft_textdetail":0,
						"g_mdsft_textpersp":1,
						"g_mdsft_cycletype":1,
						"g_mdsft_color_dither":1,
						"g_mdsft_pipeline":1,
						"g_mdsft_alpha_compare":0,
						"g_mdsft_zsrcsel":0,
						"clip_ratio":1,
						"set_rendermode":1,
						"rendermode_advanced_enabled":0,
						"rendermode_preset_cycle_1":8,
						"rendermode_preset_cycle_2":1,
						"aa_en":1,
						"z_cmp":1,
						"z_upd":1,
						"im_rd":1,
						"clr_on_cvg":0,
						"cvg_dst":0,
						"zmode":0,
						"cvg_x_alpha":0,
						"alpha_cvg_sel":1,
						"force_bl":0,
						"blend_p1":3,
						"blend_p2":0,
						"blend_a1":2,
						"blend_a2":0,
						"blend_m1":0,
						"blend_m2":1,
						"blend_b1":0,
						"blend_b2":1
					},
					"draw_layer":{
						"sm64":1,
						"oot":0,
						"name":""
					},
					"presetName":"Shaded Texture",
					"tex_scale":[
						1.0,
						1.0
					]
				},
				"ootMaterial":{},
				"objex_bonus":{},
				"is_f3d":1,
				"mat_ver":6,
				"f3d_update_flag":0,
				"col":"ground"
			},
			"name":"f3dlite_material.001",
			"pbrMetallicRoughness":{}
		},
		{
			"extras":{
				"rdp_settings":{},
				"combiner1":{},
				"UVanim":{
					"x":{},
					"y":{}
				},
				"tex0":{
					"tile_scroll":{}
				},
				"ootCollisionProperty":{},
				"f3d_mat":{
					"name":"",
					"combiner1":{
						"name":"",
						"A":1,
						"B":8,
						"C":4,
						"D":7,
						"A_alpha":7,
						"B_alpha":7,
						"C_alpha":7,
						"D_alpha":6
					},
					"combiner2":{
						"name":"",
						"A":0,
						"B":8,
						"C":3,
						"D":7,
						"A_alpha":7,
						"B_alpha":7,
						"C_alpha":7,
						"D_alpha":0
					},
					"tex0":{
						"tex_set":1,
						"name":"",
						"tex":{
							"name":"T_Walls16.png",
							"type":"Image"
						},
						"menu":1,
						"S":{
							"mask":6,
							"shift":0,
							"low":0.0,
							"high":63.0
						},
						"T":{
							"mask":6,
							"shift":0,
							"low":0.0,
							"high":63.0
						},
						"tex_format":5
					},
					"tex1":{
						"tex_set":1,
						"name":"",
						"tex":{}
					},
					"set_prim":1,
					"set_lights":0,
					"set_env":0,
					"set_blend":0,
					"set_key":1,
					"set_k0_5":1,
					"set_combiner":1,
					"use_default_lighting":1,
					"blend_color":[
						0.0,
						0.0,
						0.0,
						1.0
					],
					"prim_color":[
						1.0,
						1.0,
						1.0,
						1.0
					],
					"env_color":[
						0.0,
						0.0,
						0.0,
						1.0
					],
					"key_center":[
						0.5,
						0.5,
						0.5,
						1.0
					],
					"key_scale":[
						0.0,
						0.0,
						0.0
					],
					"key_width":[
						0.0,
						0.0,
						0.0
					],
					"k0":0.686274528503418,
					"k1":-0.16862745583057404,
					"k2":-0.3490196168422699,
					"k3":0.8705882430076599,
					"k4":0.4470588266849518,
					"k5":0.16470588743686676,
					"prim_lod_frac":0.0,
					"prim_lod_min":0.0,
					"default_light_color":[
						1.0,
						1.0,
						1.0,
						1.0
					],
					"ambient_light_color":[
						0.2140410989522934,
						0.2140410989522934,
						0.2140410989522934,
						1.0
					],
					"f3d_light1":null,
					"f3d_light2":null,
					"f3d_light3":null,
					"f3d_light4":null,
					"f3d_light5":null,
					"f3d_light6":null,
					"f3d_light7":null,
					"set_ao":0,
					"set_fresnel":0,
					"set_attroffs_st":0,
					"set_attroffs_z":0,
					"fog_color":[
						0.0,
						0.0,
						0.0,
						1.0
					],
					"fog_position":[
						985,
						1000
					],
					"set_fog":0,
					"use_global_fog":1,
					"rdp_settings":{
						"name":"",
						"g_zbuffer":1,
						"g_shade":1,
						"g_ambocclusion":0,
						"g_attroffset_z_enable":0,
						"g_attroffset_st_enable":0,
						"g_cull_front":0,
						"g_cull_back":1,
						"g_packed_normals":0,
						"g_lighttoalpha":0,
						"g_lighting_specular":0,
						"g_fresnel_color":0,
						"g_fresnel_alpha":0,
						"g_fog":1,
						"g_lighting":1,
						"g_tex_gen":0,
						"g_tex_gen_linear":0,
						"g_lod":0,
						"g_shade_smooth":1,
						"g_clipping":0,
						"g_mdsft_alpha_dither":2,
						"g_mdsft_rgb_dither":0,
						"g_mdsft_combkey":0,
						"g_mdsft_textconv":2,
						"g_mdsft_text_filt":2,
						"g_mdsft_textlut":1,
						"g_mdsft_textlod":0,
						"g_mdsft_textdetail":0,
						"g_mdsft_textpersp":1,
						"g_mdsft_cycletype":1,
						"g_mdsft_color_dither":1,
						"g_mdsft_pipeline":1,
						"g_mdsft_alpha_compare":0,
						"g_mdsft_zsrcsel":0,
						"clip_ratio":1,
						"set_rendermode":1,
						"rendermode_advanced_enabled":0,
						"rendermode_preset_cycle_1":8,
						"rendermode_preset_cycle_2":1,
						"aa_en":1,
						"z_cmp":1,
						"z_upd":1,
						"im_rd":1,
						"clr_on_cvg":0,
						"cvg_dst":0,
						"zmode":0,
						"cvg_x_alpha":0,
						"alpha_cvg_sel":1,
						"force_bl":0,
						"blend_p1":3,
						"blend_p2":0,
						"blend_a1":2,
						"blend_a2":0,
						"blend_m1":0,
						"blend_m2":1,
						"blend_b1":0,
						"blend_b2":1
					},
					"draw_layer":{
						"sm64":1,
						"oot":0,
						"name":""
					},
					"presetName":"Shaded Texture",
					"tex_scale":[
						1.0,
						1.0
					]
				},
				"ootMaterial":{},
				"objex_bonus":{},
				"is_f3d":1,
				"mat_ver":6,
				"f3d_update_flag":0,
				"col":"wall"
			},
			"name":"f3dlite_material.002",
			"pbrMetallicRoughness":{}
		},
		{
			"extras":{
				"rdp_settings":{},
				"combiner1":{},
				"UVanim":{
					"x":{},
					"y":{}
				},
				"tex0":{
					"tile_scroll":{}
				},
				"ootCollisionProperty":{},
				"f3d_mat":{
					"name":"",
					"combiner1":{
						"name":"",
						"A":1,
						"B":8,
						"C":4,
						"D":7,
						"A_alpha":7,
						"B_alpha":7,
						"C_alpha":7,
						"D_alpha":6
					},
					"combiner2":{
						"name":"",
						"A":0,
						"B":8,
						"C":3,
						"D":7,
						"A_alpha":7,
						"B_alpha":7,
						"C_alpha":7,
						"D_alpha":0
					},
					"tex0":{
						"tex_set":1,
						"name":"",
						"tex":{
							"name":"T_Walls14.png",
							"type":"Image"
						},
						"menu":1,
						"S":{
							"mask":6,
							"shift":0,
							"low":0.0,
							"high":63.0
						},
						"T":{
							"mask":6,
							"shift":0,
							"low":0.0,
							"high":63.0
						},
						"tex_format":5
					},
					"tex1":{
						"tex_set":1,
						"name":"",
						"tex":{}
					},
					"set_prim":1,
					"set_lights":0,
					"set_env":0,
					"set_blend":0,
					"set_key":1,
					"set_k0_5":1,
					"set_combiner":1,
					"use_default_lighting":1,
					"blend_color":[
						0.0,
						0.0,
						0.0,
						1.0
					],
					"prim_color":[
						1.0,
						1.0,
						1.0,
						1.0
					],
					"env_color":[
						0.0,
						0.0,
						0.0,
						1.0
					],
					"key_center":[
						0.5,
						0.5,
						0.5,
						1.0
					],
					"key_scale":[
						0.0,
						0.0,
						0.0
					],
					"key_width":[
						0.0,
						0.0,
						0.0
					],
					"k0":0.686274528503418,
					"k1":-0.16862745583057404,
					"k2":-0.3490196168422699,
					"k3":0.8705882430076599,
					"k4":0.4470588266849518,
					"k5":0.16470588743686676,
					"prim_lod_frac":0.0,
					"prim_lod_min":0.0,
					"default_light_color":[
						1.0,
						1.0,
						1.0,
						1.0
					],
					"ambient_light_color":[
						0.2140410989522934,
						0.2140410989522934,
						0.2140410989522934,
						1.0
					],
					"f3d_light1":null,
					"f3d_light2":null,
					"f3d_light3":null,
					"f3d_light4":null,
					"f3d_light5":null,
					"f3d_light6":null,
					"f3d_light7":null,
					"set_ao":0,
					"set_fresnel":0,
					"set_attroffs_st":0,
					"set_attroffs_z":0,
					"fog_color":[
						0.0,
						0.0,
						0.0,
						1.0
					],
					"fog_position":[
						985,
						1000
					],
					"set_fog":0,
					"use_global_fog":1,
					"rdp_settings":{
						"name":"",
						"g_zbuffer":1,
						"g_shade":1,
						"g_ambocclusion":0,
						"g_attroffset_z_enable":0,
						"g_attroffset_st_enable":0,
						"g_cull_front":0,
						"g_cull_back":1,
						"g_packed_normals":0,
						"g_lighttoalpha":0,
						"g_lighting_specular":0,
						"g_fresnel_color":0,
						"g_fresnel_alpha":0,
						"g_fog":1,
						"g_lighting":1,
						"g_tex_gen":0,
						"g_tex_gen_linear":0,
						"g_lod":0,
						"g_shade_smooth":1,
						"g_clipping":0,
						"g_mdsft_alpha_dither":2,
						"g_mdsft_rgb_dither":0,
						"g_mdsft_combkey":0,
						"g_mdsft_textconv":2,
						"g_mdsft_text_filt":2,
						"g_mdsft_textlut":1,
						"g_mdsft_textlod":0,
						"g_mdsft_textdetail":0,
						"g_mdsft_textpersp":1,
						"g_mdsft_cycletype":1,
						"g_mdsft_color_dither":1,
						"g_mdsft_pipeline":1,
						"g_mdsft_alpha_compare":0,
						"g_mdsft_zsrcsel":0,
						"clip_ratio":1,
						"set_rendermode":1,
						"rendermode_advanced_enabled":0,
						"rendermode_preset_cycle_1":8,
						"rendermode_preset_cycle_2":1,
						"aa_en":1,
						"z_cmp":1,
						"z_upd":1,
						"im_rd":1,
						"clr_on_cvg":0,
						"cvg_dst":0,
						"zmode":0,
						"cvg_x_alpha":0,
						"alpha_cvg_sel":1,
						"force_bl":0,
						"blend_p1":3,
						"blend_p2":0,
						"blend_a1":2,
						"blend_a2":0,
						"blend_m1":0,
						"blend_m2":1,
						"blend_b1":0,
						"blend_b2":1
					},
					"draw_layer":{
						"sm64":1,
						"oot":0,
						"name":""
					},
					"presetName":"Shaded Texture",
					"tex_scale":[
						1.0,
						1.0
					]
				},
				"ootMaterial":{},
				"objex_bonus":{},
				"is_f3d":1,
				"mat_ver":6,
				"f3d_update_flag":0
			},
			"name":"f3dlite_material",
			"pbrMetallicRoughness":{}
		}
	],
	"meshes":[
		{
			"name":"Cube",
			"primitives":[
				{
					"attributes":{
						"COLOR_0":0,
						"POSITION":1,
						"NORMAL":2,
						"TEXCOORD_0":3
					},
					"indices":4,
					"material":0
				},
				{
					"attributes":{
						"COLOR_0":5,
						"POSITION":6,
						"NORMAL":7,
						"TEXCOORD_0":8
					},
					"indices":9,
					"material":1
				},
				{
					"attributes":{
						"COLOR_0":10,
						"POSITION":11,
						"NORMAL":12,
						"TEXCOORD_0":13
					},
					"indices":14,
					"material":2
				}
			]
		}
	],
	"accessors":[
		{
			"bufferView":0,
			"componentType":5126,
			"count":4,
			"type":"VEC4"
		},
		{
			"bufferView":1,
			"componentType":5126,
			"count":4,
			"max":[
				1,
				-1,
				1
			],
			"min":[
				-1,
				-1,
				-1
			],
			"type":"VEC3"
		},
		{
			"bufferView":2,
			"componentType":5126,
			"count":4,
			"type":"VEC3"
		},
		{
			"bufferView":3,
			"componentType":5126,
			"count":4,
			"type":"VEC2"
		},
		{
			"bufferView":4,
			"componentType":5123,
			"count":6,
			"type":"SCALAR"
		},
		{
			"bufferView":5,
			"componentType":5126,
			"count":16,
			"type":"VEC4"
		},
		{
			"bufferView":6,
			"componentType":5126,
			"count":16,
			"max":[
				1,
				3.6485435962677,
				1
			],
			"min":[
				-1,
				-1,
				-1
			],
			"type":"VEC3"
		},
		{
			"bufferView":7,
			"componentType":5126,
			"count":16,
			"type":"VEC3"
		},
		{
			"bufferView":8,
			"componentType":5126,
			"count":16,
			"type":"VEC2"
		},
		{
			"bufferView":9,
			"componentType":5123,
			"count":24,
			"type":"SCALAR"
		},
		{
			"bufferView":10,
			"componentType":5126,
			"count":4,
			"type":"VEC4"
		},
		{
			"bufferView":11,
			"componentType":5126,
			"count":4,
			"max":[
				1,
				3.6485435962677,
				1
			],
			"min":[
				-1,
				3.6485435962677,
				-1
			],
			"type":"VEC3"
		},
		{
			"bufferView":12,
			"componentType":5126,
			"count":4,
			"type":"VEC3"
		},
		{
			"bufferView":13,
			"componentType":5126,
			"count":4,
			"type":"VEC2"
		},
		{
			"bufferView":14,
			"componentType":5123,
			"count":6,
			"type":"SCALAR"
		}
	],
	"bufferViews":[
		{
			"buffer":0,
			"byteLength":64,
			"byteOffset":0,
			"target":34962
		},
		{
			"buffer":0,
			"byteLength":48,
			"byteOffset":64,
			"target":34962
		},
		{
			"buffer":0,
			"byteLength":48,
			"byteOffset":112,
			"target":34962
		},
		{
			"buffer":0,
			"byteLength":32,
			"byteOffset":160,
			"target":34962
		},
		{
			"buffer":0,
			"byteLength":12,
			"byteOffset":192,
			"target":34963
		},
		{
			"buffer":0,
			"byteLength":256,
			"byteOffset":204,
			"target":34962
		},
		{
			"buffer":0,
			"byteLength":192,
			"byteOffset":460,
			"target":34962
		},
		{
			"buffer":0,
			"byteLength":192,
			"byteOffset":652,
			"target":34962
		},
		{
			"buffer":0,
			"byteLength":128,
			"byteOffset":844,
			"target":34962
		},
		{
			"buffer":0,
			"byteLength":48,
			"byteOffset":972,
			"target":34963
		},
		{
			"buffer":0,
			"byteLength":64,
			"byteOffset":1020,
			"target":34962
		},
		{
			"buffer":0,
			"byteLength":48,
			"byteOffset":1084,
			"target":34962
		},
		{
			"buffer":0,
			"byteLength":48,
			"byteOffset":1132,
			"target":34962
		},
		{
			"buffer":0,
			"byteLength":32,
			"byteOffset":1180,
			"target":34962
		},
		{
			"buffer":0,
			"byteLength":12,
			"byteOffset":1212,
			"target":34963
		}
	],
	"buffers":[
		{
			"byteLength":1224,
			"uri":"shopInterior.bin"
		}
	]
}
